<?xml version="1.0" encoding="UTF-8"?>
<svg version="1.1" viewBox="0 0 960 711" xmlns="http://www.w3.org/2000/svg">
<path transform="translate(37.243 -.1288)" d="m0 0c1.2936-0.0032722 2.5873-0.0065444 3.9201-0.0099157 1.4418 0.0014101 2.8835 0.0029122 4.3253 0.0044958 1.5331-0.0019525 3.0662-0.0043412 4.5993-0.007128 4.2382-0.0064157 8.4763-0.0065604 12.714-0.0057226 4.6013-1.6919e-4 9.2027-0.0060718 13.804-0.011241 9.1375-0.0093387 18.275-0.01325 27.413-0.015519 10.94-0.0029588 21.88-0.011654 32.821-0.020414 26.445-0.020858 52.89-0.031316 79.335-0.04013 12.505-0.0042043 25.011-0.0094266 37.516-0.014685 42.12-0.01761 84.241-0.032664 126.36-0.03997 3.3579-5.8397e-4 6.7158-0.0011812 10.074-0.0017776 0.6661-1.1812e-4 1.3322-2.3624e-4 2.0185-3.5794e-4 6.7486-0.0011974 13.497-0.0024062 20.246-0.0036325 1.3531-2.4523e-4 2.7062-4.8909e-4 4.0593-7.3157e-4 43.459-0.0077901 86.918-0.030174 130.38-0.062676 46.601-0.034841 93.203-0.055475 139.8-0.058818 5.0391-4.1755e-4 10.078-8.9712e-4 15.117-0.0014232 1.2408-1.2319e-4 2.4816-2.4638e-4 3.76-3.7331e-4 19.989-0.0023344 39.978-0.018008 59.968-0.038469 20.083-0.020231 40.166-0.025748 60.248-0.016229 11.938 0.0052256 23.876-7.1236e-4 35.813-0.022535 7.97-0.013471 15.94-0.012464 23.91 4.0196e-4 4.5439 0.0069214 9.0876 0.007482 13.632-0.0095601 4.1348-0.015382 8.2692-0.012307 12.404 0.0054103 1.4855 0.0031466 2.971-3.9238e-4 4.4565-0.011492 11.913-0.083206 19.985 2.4654 30.061 8.5113l2.25 1.0625c3.2953 1.7654 4.5679 3.3911 5.75 6.9375l1.5 1.3125c2.105 2.3682 2.1572 4.6023 2.5 7.6875h2c0.034236 54.678 0.066077 109.36 0.084686 164.03 2.7611e-4 0.80922 5.5223e-4 1.6184 8.3671e-4 2.4522 0.0059858 17.586 0.011526 35.173 0.016608 52.759 0.0024947 8.6243 0.0050878 17.249 0.0077326 25.873 2.6152e-4 0.85823 5.2304e-4 1.7165 7.9248e-4 2.6007 0.008523 27.819 0.023546 55.637 0.041939 83.456 0.018866 28.587 0.031177 57.174 0.035236 85.76 5.7631e-4 4.0375 0.0012276 8.075 0.0019245 12.112 1.3484e-4 0.79464 2.6969e-4 1.5893 4.0862e-4 2.408 0.0023636 12.793 0.01164 25.585 0.023501 38.378 0.011776 12.86 0.016272 25.72 0.013339 38.58-0.0015214 7.6409 0.0025364 15.282 0.014592 22.923 0.0083876 5.7056 0.0063248 11.411 2.027e-4 17.117-8.4606e-4 2.3084 0.0016999 4.6168 0.0079686 6.9251 0.0080255 3.1375 0.0036998 6.2748-0.0036707 9.4124 0.005254 0.89623 0.010508 1.7925 0.015921 2.7158-0.049739 9.3698-0.94844 17.279-7.262 24.495-1.3262 0.68079-2.6602 1.3463-4 2-1.4161 1.0993-2.8109 2.2266-4.1875 3.375-7.7426 6.1227-15.293 8.7481-25.142 8.7527-1.2873 0.003016-2.5746 0.0060319-3.9009 0.0091393-1.4294-0.001699-2.8588-0.0034897-4.2881-0.005362-1.524 0.0016497-3.0481 0.003736-4.5721 0.0062201-4.2083 0.0055756-8.4166 0.0048926-12.625 0.0032224-4.5707-7.2988e-4 -9.1415 0.004289-13.712 0.008575-9.0746 0.0075883-18.149 0.0097735-27.224 0.010329-10.866 9.1281e-4 -21.731 0.0075779-32.597 0.014347-26.263 0.01607-52.527 0.021964-78.79 0.026749-12.42 0.0023347-24.84 0.0059372-37.26 0.0096954-42.5 0.012836-85.001 0.023555-127.5 0.027003-1.3335 1.104e-4 -2.6669 2.2115e-4 -4.0004 3.3224e-4 -4.0102 3.338e-4 -8.0205 6.6428e-4 -12.031 9.9456e-4 -4.6951 3.869e-4 -9.3901 7.765e-4 -14.085 0.0011711-1.3438 1.1242e-4 -2.6875 2.2384e-4 -4.0313 3.3426e-4 -43.161 0.0035498-86.322 0.01863-129.48 0.041938-46.285 0.024985-92.569 0.039385-138.85 0.040598-5.0048 1.7146e-4 -10.01 3.8689e-4 -15.014 6.3443e-4 -1.8485 8.365e-5 -1.8485 8.365e-5 -3.7344 1.6899e-4 -19.852 0.0011518-39.705 0.012184-59.557 0.026718-19.945 0.014349-39.89 0.017611-59.835 0.00956-11.856-0.0044637-23.711-5.6627e-4 -35.567 0.015238-7.9152 0.0097271-15.83 0.0085935-23.746-0.0014362-4.5126-0.0054084-9.025-0.0060496-13.538 0.0065087-4.1063 0.011333-8.2123 0.0088216-12.319-0.0046671-1.4752-0.0024329-2.9504 1.4625e-4 -4.4256 0.0083965-17.183 0.089772-28.579-4.8748-41.167-16.384-6.5443-7.2212-5.9624-15.737-5.9355-24.964-0.0011538-0.98005-0.0023077-1.9601-0.0034965-2.9698-0.002648-3.2857 0.0018405-6.5714 0.0062898-9.8571-4.3607e-4 -2.3787-0.0013116-4.7573-0.0025892-7.136-0.0017705-5.1724-4.3597e-4 -10.345 0.0036382-15.517 0.0060413-7.6912 0.0063352-15.382 0.005458-23.074-0.0013132-12.938 0.002025-25.877 0.0080174-38.815 0.0059178-12.81 0.0097661-25.62 0.010853-38.43 6.874e-5 -0.7966 1.3748e-4 -1.5932 2.083e-4 -2.4139 3.3833e-4 -4.0456 6.3972e-4 -8.0911 9.2687e-4 -12.137 0.0021002-28.652 0.008837-57.304 0.018303-85.956 0.0091849-27.834 0.016268-55.669 0.020508-83.503 1.3153e-4 -0.85803 2.6305e-4 -1.7161 3.9856e-4 -2.6001 0.0013185-8.6167 0.0025943-17.233 0.0038389-25.85 0.0025362-17.553 0.0053574-35.106 0.0083511-52.659 1.3729e-4 -0.80706 2.7458e-4 -1.6141 4.1603e-4 -2.4456 0.0092001-53.891 0.025066-107.78 0.041927-161.67h2l0.8125-3.875c0.7594-3.6218 0.88828-3.9255 4.1875-6.125 0.6837-1.3247 1.3496-2.6586 2-4 1.5239-1.8702 2.3821-2.8613 4.7578-3.3945 2.875-0.77634 5.1591-2.1294 7.7422-3.6055 5.5717-3.1839 9.322-4.1246 15.743-4.1288zm21.757 68.129v1h842v-1h-842zm0 2v495h1v-495h-1zm2 0v495h838v-495h-838zm839 0v495h1v-495h-1zm-841 496v1h842v-1h-842z" fill="#363E47"/>
<path transform="translate(425,177)" d="m0 0 4 1v292c-4.326 0-4.9264-0.32828-8.1875-2.8086-0.78117-0.58201-1.5623-1.164-2.3672-1.7637-0.80695-0.61553-1.6139-1.2311-2.4453-1.8652-1.5999-1.2127-3.2039-2.42-4.8125-3.6211-0.7077-0.53939-1.4154-1.0788-2.1445-1.6345-1.9652-1.4204-1.9652-1.4204-4.2422-1.8032-0.59426-0.16621-1.1885-0.33242-1.8008-0.50366l-1-3c-1.7137-1.5775-1.7137-1.5775-3.8672-3.0742-0.79849-0.58177-1.597-1.1635-2.4197-1.7629-0.85408-0.61061-1.7082-1.2212-2.5881-1.8503-0.86246-0.62415-1.7249-1.2483-2.6135-1.8914-1.7179-1.2429-3.4377-2.4833-5.1594-3.7209-1.9875-1.4367-3.9585-2.8904-5.9185-4.3643-0.94746-0.70898-1.8949-1.418-2.8711-2.1484-0.80309-0.60457-1.6062-1.2091-2.4336-1.832-2.0397-1.4653-2.0397-1.4653-4.3516-1.8672-0.58652-0.16113-1.173-0.32227-1.7773-0.48828l-1-3c-1.7137-1.5775-1.7137-1.5775-3.8672-3.0742-0.79849-0.58177-1.597-1.1635-2.4197-1.7629-0.85408-0.61061-1.7082-1.2212-2.5881-1.8503-0.86246-0.62415-1.7249-1.2483-2.6135-1.8914-1.7179-1.2429-3.4377-2.4833-5.1594-3.7209-1.9875-1.4367-3.9585-2.8904-5.9185-4.3643-0.94746-0.70898-1.8949-1.418-2.8711-2.1484-0.80309-0.60457-1.6062-1.2091-2.4336-1.832-2.0397-1.4653-2.0397-1.4653-4.3516-1.8672-0.58652-0.16113-1.173-0.32227-1.7773-0.48828l-1-3c-1.7137-1.5775-1.7137-1.5775-3.8672-3.0742-1.2066-0.87882-1.2066-0.87882-2.4375-1.7754-0.8482-0.6065-1.6964-1.213-2.5703-1.8379-0.80953-0.58717-1.6191-1.1743-2.4531-1.7793-1.6416-1.1897-3.296-2.3619-4.9632-3.5155-2.7087-2.0177-2.7087-2.0177-4.7386-4.0976-9.4753-8.9106-21.918-7.0273-34.107-6.9201-2.1731-0.0081234-4.3461-0.019829-6.5192-0.035156-8.0105-0.031595-16.021 0.0058762-24.032 0.035156h-54.312v-123c53.375 0.5 53.375 0.5 70.06 0.7832 34.349 0.59419 34.349 0.59419 63.438-15.698 4.513-3.7608 9.6003-6.6333 14.627-9.6478 1.9842-1.2369 3.9663-2.4773 5.9453-3.7227 5.9736-3.7431 11.951-7.4795 17.93-11.215 2-1.25 4-2.5 6-3.75 12-7.5 12-7.5 15.006-9.3784 1.9814-1.2384 3.9627-2.477 5.9438-3.7158 4.7116-2.9457 9.4242-5.8896 14.141-8.8275 1.6935-1.055 3.3866-2.1106 5.0797-3.1662 2.1425-1.3357 4.2858-2.6704 6.4297-4.0039 0.95584-0.59619 1.9117-1.1924 2.8965-1.8066 1.2712-0.79156 1.2712-0.79156 2.5681-1.5991 1.862-1.1088 1.862-1.1088 2.9358-2.2524zm2 1v291h1v-291h-1z" fill="#363E47"/>
<path transform="translate(403,638)" d="m0 0c22.783-0.02255 45.565-0.040981 68.348-0.051812 10.578-0.0051622 21.155-0.012203 31.733-0.023627 9.2167-0.0099493 18.433-0.016415 27.65-0.018649 4.8827-0.0013067 9.7655-0.0043899 14.648-0.011642 4.5914-0.006764 9.1828-0.0088861 13.774-0.0073776 1.6891-2.7615e-4 3.3782-0.002279 5.0674-0.0060978 2.2983-0.0049432 4.5966-0.0037905 6.8949-0.001049 1.933-0.0013827 1.933-0.0013827 3.9051-0.0027933 2.9791 0.12305 2.9791 0.12305 4.9791 1.123v33h59v2c1.0519 0.43312 2.1038 0.86625 3.1875 1.3125 3.1091 1.328 5.9464 2.886 8.8125 4.6875l2 1c2.0815 7.7016 2.2106 17.616-1 25-1.8125 1.25-1.8125 1.25-4 2-0.76152 0.50262-1.523 1.0052-2.3076 1.5231-2.9665 1.6272-4.6084 1.8534-7.9576 1.8572-1.5708 0.01266-1.5708 0.01266-3.1733 0.025576-1.1441-0.00601-2.2881-0.01202-3.4668-0.018212-1.8305 0.0080783-1.8305 0.0080783-3.6979 0.01632-3.3844 0.011835-6.7684 0.010206-10.153 0.0028332-3.6511-0.0047264-7.3021 0.0077736-10.953 0.018017-7.1519 0.017204-14.304 0.018025-21.456 0.012787-5.8131-0.0040402-11.626-0.0025999-17.439 0.0027483-0.82713 7.4842e-4 -1.6543 0.0014968-2.5065 0.0022679-1.6803 0.0015315-3.3606 0.0030698-5.0409 0.004615-15.761 0.013731-31.522 0.0082833-47.283-0.0031852-14.419-0.0099313-28.837 0.0030054-43.256 0.026934-14.804 0.024384-29.609 0.034-44.413 0.027347-8.3118-0.003494-16.623-0.0012486-24.935 0.016251-7.0763 0.014714-14.152 0.015369-21.229-0.0020709-3.61-0.0085198-7.2198-0.010636-10.83 0.0046516-3.9145 0.016372-7.8286 0.0017167-11.743-0.015991-1.7094 0.014408-1.7094 0.014408-3.4533 0.029106-7.9079-0.073747-11.761-1.6514-18.12-6.292-2.2853-3.2254-2.0942-6.2519-1.9609-10.051 0.0012891-0.68643 0.0025781-1.3729 0.0039062-2.0801 0.079724-4.6816 0.80091-8.6895 2.3711-13.107 1.8125-1.25 1.8125-1.25 4-2l2.5-1.5c2.1307-1.2784 4.263-2.4229 6.5-3.5v-1h55v-34z" fill="#363E46"/>
<path transform="translate(623,168)" d="m0 0c5.563 2.7815 10.099 6.4529 14.735 10.558 2.93 2.5767 2.93 2.5767 6.5029 3.9927 0.58137 0.14824 1.1627 0.29648 1.7617 0.44922 0.29447 0.59716 0.58894 1.1943 0.89233 1.8096 1.2361 2.4444 2.5877 3.8305 4.592 5.6865 0.68836 0.64131 1.3767 1.2826 2.0859 1.9434 0.7193 0.65936 1.4386 1.3187 2.1797 1.998 1.0557 0.98323 1.0557 0.98323 2.1328 1.9863 4.8016 4.449 9.6463 8.7642 14.93 12.639 2.1875 1.9375 2.1875 1.9375 2.625 3.9375 0.43709 2.3864 0.43709 2.3864 3.5625 4 3 2 3 2 3.6875 4.1875l0.3125 1.8125c0.99 0.33 1.98 0.66 3 1l1 3c0.72574 0.71414 1.4515 1.4283 2.1992 2.1641 3.4072 3.4499 5.9547 7.1722 8.6133 11.211 0.52118 0.78713 1.0424 1.5743 1.5793 2.3853 12.047 18.452 12.047 18.452 13.608 26.24 0.88215 2.8821 0.88215 2.8821 2 5 1.21 3.63 2.0863 7.2841 3 11h2v7h2c2.2454 18.295 2.15 37.017-2 55-0.3798 1.9574-0.75552 3.9156-1.125 5.875-0.76901 3.872-1.6462 6.7818-3.875 10.125-0.16714 2.6253-0.16714 2.6253 0 5h-2c-0.097969 0.56848-0.19594 1.137-0.29688 1.7227-1.0664 5.5065-2.686 9.5505-5.7031 14.277h-2c-0.036094 0.79277-0.072188 1.5855-0.10938 2.4023-1.2773 5.1596-4.099 8.8573-7.1406 13.16-0.57363 0.83725-1.1473 1.6745-1.7383 2.5371-3.0514 4.3895-6.15 8.2145-10.012 11.9-0.35062 0.72188-0.70125 1.4438-1.0625 2.1875-0.9375 1.8125-0.9375 1.8125-3 2.8125l-1.9375 1-0.375 1.875c-0.84191 2.8625-2.5325 3.4125-4.949 4.958-2.8103 1.9568-5.1403 4.4067-7.5198 6.8506-0.79827 0.80607-0.79827 0.80607-1.6127 1.6284-1.6861 1.7037-3.3653 3.4141-5.0436 5.1255-1.6792 1.707-3.3598 3.4123-5.0436 5.1148-1.0425 1.0546-2.0823 2.1118-3.1189 3.1722-2.4459 2.4792-4.9164 4.7784-7.6403 6.9516-2.9089 2.1051-2.9089 2.1051-3.6973 5.324-0.55559 0.13148-1.1112 0.26297-1.6836 0.39844-3.9436 1.0241-6.8733 3.9942-9.9824 6.5391-1.3894 1.0948-2.8583 2.087-4.334 3.0625-0.99-0.33-1.98-0.66-3-1 3.625-5.75 3.625-5.75 7-8 0.68268-1.3252 1.3507-2.6581 2-4l2-1 1-3 2-1c0.43506-1.0944 0.43506-1.0944 0.87891-2.2109 1.2908-3.2112 3.0025-5.6343 5.0586-8.4141 0.68965-0.94102 1.3793-1.882 2.0898-2.8516 1.9727-2.5234 1.9727-2.5234 3.6641-4.1094 1.4504-1.3399 1.4504-1.3399 1.7788-3.2966 0.85549-3.4192 2.8206-6.289 4.5923-9.3049 4.8286-8.3755 8.9417-17.015 12.938-25.812h2l0.375-3.3125c0.68686-4.0525 1.7484-5.8109 4.625-8.6875 0.46006-2.2025 0.46006-2.2025 0.625-4.625 0.074766-0.81727 0.14953-1.6345 0.22656-2.4766 0.048984-0.62648 0.097969-1.253 0.14844-1.8984h2v-7h2c9.6024-39.606 7.8287-75.314-5-114h-2v-5h-2v-5h-2l-1-7h-2c-0.10957-0.60328-0.21914-1.2066-0.33203-1.8281-1.2008-6.1053-1.2008-6.1053-4.668-11.172-3.2775-3.663-4.5418-6.0745-5-11-0.99-0.33-1.98-0.66-3-1-1.5431-2.3308-2.944-4.6329-4.3125-7.0625-2.9286-5.0605-5.902-9.8688-9.5938-14.422-1.0938-1.5156-1.0938-1.5156-2.0938-4.5156l-2-1-1-3-2-1-1-3-3-2c-0.14438-0.66-0.28875-1.32-0.4375-2-0.3752-2.2075-0.3752-2.2075-2.625-3.25-0.63938-0.2475-1.2788-0.495-1.9375-0.75l1-3zm98 129v5h1v-5h-1zm-50 93 1 2zm-5 12 1 2z" fill="#373F47"/>
<path transform="translate(558,210)" d="m0 0c7.246 3.3024 12.729 9.6094 18.141 15.301 1.7812 1.7855 1.7812 1.7855 4.0312 2.7734 2.6266 1.3301 2.7624 3.2615 3.8281 5.9258 2.0167 1.1335 2.0167 1.1335 4 2l1 3 3 2 1 3c0.56461 0.54141 1.1292 1.0828 1.7109 1.6406 3.2428 3.3424 5.4933 7.1481 7.9141 11.109 0.73477 1.1602 0.73477 1.1602 1.4844 2.3438 3.0444 4.9576 4.631 9.244 5.8906 14.906l2 2c2.0029 3.0044 2.4927 4.7099 3.125 8.1875 0.25137 1.3516 0.25137 1.3516 0.50781 2.7305 0.12117 0.68707 0.24234 1.3741 0.36719 2.082h2l-0.125 2.875c-0.010472 3.0097 0.41587 5.6419 1.1094 8.5664 1.2779 6.2086 1.3982 12.298 1.3906 18.621 8.4595e-4 1.7787 8.4595e-4 1.7787 0.001709 3.5933-0.10405 8.3615-1.1304 15.893-3.4197 23.911-1.1626 4.1712-1.6438 8.1263-1.957 12.434h-2l-0.4375 3.5c-2.5485 11.249-10.395 21.539-16.875 30.875-0.50322 0.73154-1.0064 1.4631-1.5249 2.2168-0.48292 0.67869-0.96583 1.3574-1.4634 2.0566-0.4245 0.5999-0.84901 1.1998-1.2864 1.8179-1.6282 1.7675-3.2742 2.4847-5.4128 3.5337-0.14438 0.63938-0.28875 1.2788-0.4375 1.9375-0.5625 2.0625-0.5625 2.0625-3 3.625l-2.5625 1.4375c-1.9457 2.7399-1.9457 2.7399-2.8516 4.8945-1.477 2.7078-3.3502 4.6089-5.5234 6.793-0.77086 0.78762-1.5417 1.5752-2.3359 2.3867-2.2771 1.9157-3.4388 2.4207-6.2891 2.9258-2.2072 1.488-2.2072 1.488-4 3l-2-1 1-3h2c0.10184-0.8482 0.20367-1.6964 0.30859-2.5703 0.76459-3.7927 2.0829-6.8206 3.7539-10.305 0.54785-1.1524 1.0957-2.3048 1.6602-3.4922 0.63229-1.3032 0.63229-1.3032 1.2773-2.6328h2l0.25-2.8125c0.73243-5.3128 2.8169-10.215 4.75-15.188h2c1.7424-4.4805 3.2159-8.5188 3.0625-13.375-0.0625-3.625-0.0625-3.625 1.9375-6.625 1.7428-3.0558 2.464-5.7887 3.0352-9.2539 0.16951-1.0203 0.33902-2.0406 0.51367-3.0918 0.16951-1.0615 0.33902-2.1231 0.51367-3.2168 0.17338-1.0345 0.34676-2.0689 0.52539-3.1348 4.9585-30.34 2.2858-60.888-6.5879-90.303h-2l0.1875-3c0.027416-4.4689-1.4667-7.913-3.1875-12h-2v-5h-2v-5h-2c-1.4918-3.0356-2.9661-6.0795-4.4375-9.125-0.63132-1.2839-0.63132-1.2839-1.2754-2.5938-2.1303-4.4311-3.8392-8.3139-4.2871-13.281zm9 18 1 2zm46 53 1 2zm-33 92 1 3zm-7 22 1 2zm-2 5 1 2zm-4 10 1 2z" fill="#373F47"/>
<path transform="translate(473,229)" d="m0 0c4.1962 0.53473 6.4553 1.8074 9.6875 4.5 1.3071 1.0886 1.3071 1.0886 2.6406 2.1992 7.4082 6.3793 14.441 12.983 21.227 20.016 2.1557 2.0145 3.8116 3.0778 6.4453 4.2852 0.68487 1.3241 1.3487 2.6591 2 4 0.76184 0.73734 1.5237 1.4747 2.3086 2.2344 2.813 2.8906 4.7427 5.751 6.8164 9.2031 0.66258 1.0918 1.3252 2.1837 2.0078 3.3086 2.9725 5.18 5.0113 9.324 5.8672 15.254 0.64547 2.1731 1.3135 4.3395 2 6.5 3.515 12.213 3.2245 23.088 1 35.5-0.37603 2.2915-0.7511 4.5832-1.125 6.875-0.28997 1.7086-0.58096 3.4171-0.875 5.125h-2l-2 6-0.75 2.8125c-1.8112 4.6186-4.6521 10.889-9.25 13.188l-1 3-2 1c-0.30938 0.66-0.61875 1.32-0.9375 2-1.0625 2-1.0625 2-4.0625 3l-0.3125 1.8125c-0.88748 2.8238-2.3705 3.3793-4.8164 4.8633-3.2409 2.2937-5.8575 5.2351-8.6172 8.0742-2.0084 2.0049-4.0629 3.8254-6.2539 5.625-3.1865 2.3418-3.1865 2.3418-4 5.625-1.3205 0.38092-2.6571 0.70774-4 1-1.9441 1.166-1.9441 1.166-3.75 2.5625-0.61359 0.45504-1.2272 0.91008-1.8594 1.3789-0.45891 0.34934-0.91781 0.69867-1.3906 1.0586l-2-1c0.28875-0.55688 0.5775-1.1138 0.875-1.6875 1.1531-2.2923 1.1531-2.2923 2.0464-4.6667 1.0287-2.5232 2.1849-4.8845 3.4614-7.2903 0.44473-0.84111 0.88945-1.6822 1.3477-2.5488 0.69029-1.2965 0.69029-1.2965 1.3945-2.6191 0.46793-0.88365 0.93586-1.7673 1.418-2.6777 1.1501-2.1711 2.3025-4.341 3.457-6.5098h2c0.10957-0.54527 0.21914-1.0905 0.33203-1.6523 1.1781-5.603 2.755-10.953 4.668-16.348h2c8.7879-33.038 8.7061-61.431-2-94h-2v-5l-2-1c-0.5625-1.875-0.5625-1.875-1-4-0.93208-2.7963-1.6006-4.5341-3.5-6.75-1.8222-2.7333-2.1326-5.017-2.5-8.25-0.99-0.33-1.98-0.66-3-1-1.7891-2.6172-1.7891-2.6172-3.625-5.875-0.61102-1.0699-1.222-2.1398-1.8516-3.2422-1.5234-2.8828-1.5234-2.8828-2.5234-5.8828zm59 114 1 2zm-38 27 1 2zm-2 5 1 2z" fill="#373F47"/>
<path transform="translate(33,632)" d="m0 0h894v1h-894v-1z" fill="#4C4C4C"/>
<path transform="translate(405,636)" d="m0 0h172v1h-172v-1z" fill="#00009A"/>
<path transform="translate(190,255)" d="m0 0h1v123h-1v-123z" fill="#666"/>
<path transform="translate(192,379)" d="m0 0h110v1h-110v-1z" fill="#4D4D4D"/>
<path transform="translate(192,253)" d="m0 0h110v1h-110v-1z" fill="#3F3F3F"/>
<path transform="translate(684,302)" d="m0 0h1v36h-1v-36z" fill="#1A2323"/>
<path transform="translate(669,432)" d="m0 0c0 3 0 3-1.9688 5.2617-0.83531 0.80051-1.6706 1.601-2.5312 2.4258-0.83531 0.80824-1.6706 1.6165-2.5312 2.4492-0.64969 0.61488-1.2994 1.2298-1.9688 1.8633l-2-1 11-11z" fill="#454544"/>
<path transform="translate(724,310)" d="m0 0h1v20h-1v-20z" fill="#2A3941"/>
<path transform="translate(649,703)" d="m0 0h4c-1 3-1 3-2.875 4.125-1.6821 0.69261-3.3993 1.2998-5.125 1.875 1.1517-2.468 2.0478-4.0478 4-6z" fill="#32484F"/>
<path transform="translate(341,678)" d="M0 0 C-0.6875 1.9375 -0.6875 1.9375 -2 4 C-4.625 4.75 -4.625 4.75 -7 5 C-6 2 -6 2 -4.0625 0.8125 C-2 0 -2 0 0 0 Z " fill="#32474D"/>
<path transform="translate(473,229)" d="m0 0c3.6875 0.49832 5.6049 1.1007 8 4l-2 1c-2.0314-0.93447-4.0353-1.9322-6-3v-2z" fill="#2B3237"/>
<path transform="translate(587,311)" d="m0 0h1v17h-1v-17z" fill="#40464F"/>
<path transform="translate(503,312)" d="m0 0h1v16h-1v-16z" fill="#38424C"/>
<path transform="translate(498,282)" d="m0 0c1.6711 2.9618 2.3268 5.3707 2.625 8.75 0.074766 0.79922 0.14953 1.5984 0.22656 2.4219 0.048984 0.60328 0.097969 1.2066 0.14844 1.8281-1.6711-2.9618-2.3268-5.3707-2.625-8.75-0.074766-0.79922-0.14953-1.5984-0.22656-2.4219-0.048984-0.60328-0.097969-1.2066-0.14844-1.8281z" fill="#272727"/>
<path transform="translate(537,323)" d="m0 0h1c0.05447 1.4162 0.093005 2.8331 0.125 4.25 0.023203 0.78891 0.046406 1.5778 0.070312 2.3906-0.19531 2.3594-0.19531 2.3594-2.1953 6.3594l1-13z" fill="#242424"/>
<path transform="translate(621,321)" d="m0 0h1v13h-1v-13z" fill="#242C38"/>
<path transform="translate(655,687)" d="m0 0h1v12h-1v-12z" fill="#333"/>
<path transform="translate(586,329)" d="m0 0h1v12h-1v-12z" fill="#282835"/>
<path transform="translate(621,306)" d="m0 0h1v12h-1v-12z" fill="#252D3B"/>
<path transform="translate(586,299)" d="m0 0h1v12h-1v-12z" fill="#1D2A2A"/>
<path transform="translate(331,687)" d="m0 0h1v11h-1v-11z" fill="#3A3A3A"/>
<path transform="translate(582,360)" d="m0 0h1l-1 9h-1l1-9z" fill="#182828"/>
<path transform="translate(681,352)" d="m0 0h1l-1 9h-1l1-9z" fill="#181828"/>
<path transform="translate(721,343)" d="m0 0h1l-1 8c-0.9812-3.0526-0.9812-4.9474 0-8z" fill="#1D2F2F"/>
<path transform="translate(619,339)" d="m0 0h1l-1 8c-0.9812-3.0526-0.9812-4.9474 0-8z" fill="#2F2F2F"/>
<path transform="translate(502,329)" d="m0 0h1v9h-1v-9z" fill="#1B2D2D"/>
<path transform="translate(502,302)" d="m0 0h1v9h-1v-9z" fill="#1D1D3A"/>
<path transform="translate(535,300)" d="m0 0c2.1519 3.2279 2.2009 4.284 2 8-1.7646-3.0881-2-4.2331-2-8z" fill="#1D2F2F"/>
<path transform="translate(537,308)" d="m0 0h1v8h-1v-8z" fill="#2E2E41"/>
<path transform="translate(683,294)" d="m0 0h1v8h-1v-8z" fill="#212121"/>
<path transform="translate(585,291)" d="m0 0h1v8h-1v-8z" fill="#1F1F1F"/>
<path transform="translate(584,348)" d="m0 0h1v7h-1v-7z" fill="#162D2D"/>
<path transform="translate(682,345)" d="m0 0h1v7h-1v-7z" fill="#1A2929"/>
<path transform="translate(585,341)" d="m0 0h1v7h-1v-7z" fill="#233232"/>
<path transform="translate(683,338)" d="m0 0h1v7h-1v-7z" fill="#233232"/>
<path transform="translate(723,331)" d="m0 0h1v7h-1v-7z" fill="#252534"/>
<path transform="translate(723,302)" d="m0 0h1v7h-1v-7z" fill="#233232"/>
<path transform="translate(501,295)" d="m0 0h1v7h-1v-7z" fill="#292929"/>
<path transform="translate(501,338)" d="m0 0h1v6h-1v-6z" fill="#1F1F1F"/>
<path transform="translate(682,288)" d="m0 0h1v6h-1v-6z" fill="#1F1F1F"/>
<path transform="translate(584,285)" d="m0 0h1v6h-1v-6z" fill="#1F1F1F"/>
<path transform="translate(651,189)" d="m0 0 4 2h-3l-1-2z" fill="#112B2B"/>
<path transform="translate(583,355)" d="m0 0h1v5h-1v-5z" fill="#252525"/>
<path transform="translate(500,344)" d="m0 0h1v5h-1v-5z" fill="#0D2D2D"/>
<path transform="translate(722,338)" d="m0 0h1v5h-1v-5z" fill="#252525"/>
<path transform="translate(620,334)" d="m0 0h1v5h-1v-5z" fill="#373737"/>
<path transform="translate(538,317)" d="m0 0h1v5h-1v-5z"/>
<path transform="translate(620,301)" d="m0 0h1v5h-1v-5z" fill="#252525"/>
<path transform="translate(619,296)" d="m0 0h1v5h-1v-5z" fill="#202020"/>
<path transform="translate(681,283)" d="m0 0h1v5h-1v-5z" fill="#252525"/>
<path transform="translate(583,280)" d="m0 0h1v5h-1v-5z" fill="#104545"/>
<path transform="translate(680,278)" d="m0 0h1v5h-1v-5z" fill="#202020"/>
<path transform="translate(582,275)" d="m0 0h1v5h-1v-5z" fill="#103030"/>
<path transform="translate(927,631)" d="m0 0 4 1z" fill="#2E2E56"/>
<path transform="translate(29,631)" d="m0 0 4 1z" fill="#2E2E56"/>
<path transform="translate(630,467)" d="m0 0 2 1h-3l1-1z" fill="#1A4343"/>
<path transform="translate(481,407)" d="m0 0 2 1h-3l1-1z" fill="#1A1A43"/>
<path transform="translate(475,406)" d="m0 0v3z" fill="#4F7575"/>
<path transform="translate(493,397)" d="m0 0 2 1h-3l1-1z" fill="#00571A"/>
<path transform="translate(678,365)" d="m0 0 1 4z" fill="#141414"/>
<path transform="translate(679,361)" d="m0 0 1 4z" fill="#2E2E2E"/>
<path transform="translate(497,357)" d="m0 0 1 4z" fill="#2E2E14"/>
<path transform="translate(499,349)" d="m0 0 1 4z" fill="#2E2E2E"/>
<path transform="translate(679,274)" d="m0 0 1 4z" fill="#2E2E2E"/>
<path transform="translate(581,271)" d="m0 0 1 4z" fill="#2D2D2D"/>
<path transform="translate(677,267)" d="m0 0 1 4z" fill="#141414"/>
<path transform="translate(580,267)" d="m0 0 1 4z" fill="#2E142E"/>
<path transform="translate(579,263)" d="m0 0 1 4z" fill="#141414"/>
<path transform="translate(561,210)" d="m0 0c0.99 0.33 1.98 0.66 3 1h-3v-1z"/>
<path transform="translate(640,673)" d="m0 0c3 1 3 1 3 1z" fill="#3E3E3E"/>
<path transform="translate(344,673)" d="m0 0c3 1 3 1 3 1z" fill="#3E3E3E"/>
<path transform="translate(931,630)" d="m0 0c3 1 3 1 3 1z" fill="#474747"/>
<path transform="translate(26,630)" d="m0 0c3 1 3 1 3 1z" fill="#474747"/>
<path transform="translate(501,249)" d="m0 0h2l-1 2-1-2z" fill="#454444"/>
<path transform="translate(646,709)" d="m0 0 2 1z"/>
<path transform="translate(339,709)" d="m0 0 2 1z"/>
<path transform="translate(646,676)" d="m0 0 2 1z" fill="#00007F"/>
<path transform="translate(339,676)" d="m0 0 2 1z"/>
<path transform="translate(643,674)" d="m0 0 2 1z" fill="#363636"/>
<path transform="translate(342,674)" d="m0 0 2 1z" fill="#373736"/>
<path transform="translate(934,629)" d="m0 0 2 1z" fill="#282827"/>
<path transform="translate(24,629)" d="m0 0 2 1z" fill="#282828"/>
<path transform="translate(936,628)" d="m0 0 2 1z" fill="#009D9D"/>
<path transform="translate(22,628)" d="m0 0 2 1z" fill="#368382"/>
<path transform="translate(938,627)" d="m0 0 2 1z" fill="#004F4F"/>
<path transform="translate(20,627)" d="m0 0 2 1z" fill="#004F4F"/>
<path transform="translate(940,626)" d="m0 0 2 1z" fill="#363636"/>
<path transform="translate(18,626)" d="m0 0 2 1z" fill="#363636"/>
<path transform="translate(944,623)" d="m0 0 2 1z" fill="#505050"/>
<path transform="translate(14,623)" d="m0 0 2 1z" fill="#505050"/>
<path transform="translate(625,471)" d="m0 0 2 1z"/>
<path transform="translate(423,470)" d="m0 0 2 1z"/>
<path transform="translate(419,467)" d="m0 0 2 1z" fill="#505050"/>
<path transform="translate(634,464)" d="m0 0 2 1z" fill="#363434"/>
<path transform="translate(415,464)" d="m0 0 2 1z" fill="#505050"/>
<path transform="translate(411,461)" d="m0 0 2 1z" fill="#52509D"/>
<path transform="translate(407,458)" d="m0 0 2 1z" fill="#00519D"/>
<path transform="translate(646,454)" d="m0 0 2 1z" fill="#003535"/>
<path transform="translate(400,453)" d="m0 0 2 1z" fill="#343434"/>
<path transform="translate(396,450)" d="m0 0 2 1z" fill="#343434"/>
<path transform="translate(392,447)" d="m0 0 2 1z" fill="#353434"/>
<path transform="translate(388,444)" d="m0 0 2 1z" fill="#343434"/>
<path transform="translate(384,441)" d="m0 0 2 1z" fill="#505050"/>
<path transform="translate(380,438)" d="m0 0 2 1z" fill="#505050"/>
<path transform="translate(376,435)" d="m0 0 2 1z" fill="#52509D"/>
<path transform="translate(372,432)" d="m0 0 2 1z" fill="#00519C"/>
<path transform="translate(365,427)" d="m0 0 2 1z" fill="#353434"/>
<path transform="translate(361,424)" d="m0 0 2 1z" fill="#343434"/>
<path transform="translate(357,421)" d="m0 0 2 1z" fill="#353434"/>
<path transform="translate(353,418)" d="m0 0 2 1z" fill="#343434"/>
<path transform="translate(349,415)" d="m0 0 2 1z" fill="#353434"/>
<path transform="translate(345,412)" d="m0 0 2 1z" fill="#505050"/>
<path transform="translate(476,411)" d="m0 0 2 1z"/>
<path transform="translate(341,409)" d="m0 0 2 1z" fill="#52509D"/>
<path transform="translate(337,406)" d="m0 0 2 1z" fill="#00519C"/>
<path transform="translate(330,401)" d="m0 0 2 1z" fill="#353535"/>
<path transform="translate(326,398)" d="m0 0 2 1z" fill="#343434"/>
<path transform="translate(322,395)" d="m0 0 2 1z" fill="#353434"/>
<path transform="translate(318,392)" d="m0 0 2 1z" fill="#343434"/>
<path transform="translate(314,389)" d="m0 0 2 1z" fill="#353434"/>
<path transform="translate(310,386)" d="m0 0 2 1z" fill="#505050"/>
<path transform="translate(306,383)" d="m0 0 2 1z" fill="#363482"/>
<path transform="translate(302,380)" d="m0 0 2 1z" fill="#00529D"/>
<path transform="translate(302,252)" d="m0 0 2 1z" fill="#003434"/>
<path transform="translate(305,250)" d="m0 0 2 1z" fill="#363633"/>
<path transform="translate(307,249)" d="m0 0 2 1z" fill="#000051"/>
<path transform="translate(310,247)" d="m0 0 2 1z" fill="#003434"/>
<path transform="translate(315,244)" d="m0 0 2 1z"/>
<path transform="translate(318,242)" d="m0 0 2 1z" fill="#003434"/>
<path transform="translate(323,239)" d="m0 0 2 1z"/>
<path transform="translate(489,238)" d="m0 0 2 1z" fill="#353535"/>
<path transform="translate(326,237)" d="m0 0 2 1z" fill="#003434"/>
<path transform="translate(331,234)" d="m0 0 2 1z"/>
<path transform="translate(483,233)" d="m0 0 2 1z" fill="#353434"/>
<path transform="translate(334,232)" d="m0 0 2 1z" fill="#343434"/>
<path transform="translate(479,230)" d="m0 0 2 1z" fill="#505050"/>
<path transform="translate(339,229)" d="m0 0 2 1z"/>
<path transform="translate(475,227)" d="m0 0 2 1z"/>
<path transform="translate(342,227)" d="m0 0 2 1z" fill="#343434"/>
<path transform="translate(344,226)" d="m0 0 2 1z" fill="#363636"/>
<path transform="translate(347,224)" d="m0 0 2 1z"/>
<path transform="translate(350,222)" d="m0 0 2 1z" fill="#343434"/>
<path transform="translate(352,221)" d="m0 0 2 1z" fill="#363636"/>
<path transform="translate(355,219)" d="m0 0 2 1z"/>
<path transform="translate(358,217)" d="m0 0 2 1z" fill="#343434"/>
<path transform="translate(360,216)" d="m0 0 2 1z" fill="#363636"/>
<path transform="translate(363,214)" d="m0 0 2 1z"/>
<path transform="translate(366,212)" d="m0 0 2 1z" fill="#353434"/>
<path transform="translate(368,211)" d="m0 0 2 1z" fill="#363636"/>
<path transform="translate(371,209)" d="m0 0 2 1z"/>
<path transform="translate(374,207)" d="m0 0 2 1z" fill="#353434"/>
<path transform="translate(376,206)" d="m0 0 2 1z" fill="#363636"/>
<path transform="translate(379,204)" d="m0 0 2 1z"/>
<path transform="translate(382,202)" d="m0 0 2 1z" fill="#353434"/>
<path transform="translate(384,201)" d="m0 0 2 1z" fill="#363636"/>
<path transform="translate(387,199)" d="m0 0 2 1z"/>
<path transform="translate(390,197)" d="m0 0 2 1z" fill="#353434"/>
<path transform="translate(392,196)" d="m0 0 2 1z" fill="#363636"/>
<path transform="translate(395,194)" d="m0 0 2 1z"/>
<path transform="translate(398,192)" d="m0 0 2 1z" fill="#353434"/>
<path transform="translate(400,191)" d="m0 0 2 1z" fill="#363636"/>
<path transform="translate(403,189)" d="m0 0 2 1z"/>
<path transform="translate(406,187)" d="m0 0 2 1z" fill="#353434"/>
<path transform="translate(408,186)" d="m0 0 2 1z" fill="#363636"/>
<path transform="translate(411,184)" d="m0 0 2 1z"/>
<path transform="translate(414,182)" d="m0 0 2 1z" fill="#353434"/>
<path transform="translate(416,181)" d="m0 0 2 1z" fill="#363636"/>
<path transform="translate(419,179)" d="m0 0 2 1z"/>
<path transform="translate(637,177)" d="m0 0 2 1z" fill="#353535"/>
<path transform="translate(422,177)" d="m0 0 2 1z" fill="#363433"/>
<path transform="translate(425,175)" d="m0 0 2 1z" fill="#005353"/>
<path transform="translate(632,173)" d="m0 0 2 1z" fill="#353535"/>
<path transform="translate(628,170)" d="m0 0 2 1z" fill="#505050"/>
<path transform="translate(942,5)" d="m0 0 2 1z" fill="#7F7FCC"/>
<path transform="translate(16,5)" d="m0 0 2 1z" fill="#7F7F7F"/>
<path transform="translate(939,3)" d="m0 0 2 1z" fill="#00004F"/>
<path transform="translate(19,3)" d="m0 0 2 1z" fill="#00004F"/>
<path transform="translate(937,2)" d="m0 0 2 1z" fill="#535350"/>
<path transform="translate(21,2)" d="m0 0 2 1z" fill="#535350"/>
<path transform="translate(935,1)" d="m0 0 2 1z" fill="#53539D"/>
<path transform="translate(23,1)" d="m0 0 2 1z" fill="#53539F"/>
<path transform="translate(933)" d="m0 0 2 1z" fill="#1F1F5F"/>
<path transform="translate(25)" d="m0 0 2 1z" fill="#1F1F1F"/>
</svg>
